<svg xmlns="http://www.w3.org/2000/svg" viewBox="0 0 247 245" width="16" height="16">
	<defs>
		<clipPath clipPathUnits="userSpaceOnUse" id="cp1">
			<path d="M0 0L247 0L247 245L0 245Z" />
		</clipPath>
	</defs>
	<style>
		tspan { white-space:pre }
		.shp0 { fill: #ffffff } 
	</style>
	<g id="Page 1" clip-path="url(#cp1)">
		<path id="Path 1" fill-rule="evenodd" class="shp0" d="M241.94 229L230.63 240.31C227.63 243.31 223.56 245 219.32 245C215.07 245 211 243.31 208 240.31L144.75 179.01C130.46 187.45 113.8 192.31 96 192.31C42.98 192.31 0 149.33 0 96.31C0 43.29 42.98 0.31 96 0.31C149.02 0.31 192 43.29 192 96.31C192 114.12 187.14 130.77 178.7 145.07L241.94 206.37C248.19 212.62 248.19 222.75 241.94 229ZM96 160.31C131.34 160.31 160 131.66 160 96.31C160 60.97 131.34 32.31 96 32.31C60.65 32.31 32 60.97 32 96.31C32 131.66 60.65 160.31 96 160.31Z" />
	</g>
</svg>